<svg width="25" height="11" viewBox="0 0 25 11" fill="none" xmlns="http://www.w3.org/2000/svg">
<path fill-rule="evenodd" clip-rule="evenodd" d="M4.6879 1.60944C4.40492 1.95838 3.95215 2.23359 3.49938 2.19428C3.44279 1.72248 3.66445 1.22119 3.92385 0.91157C4.20683 0.552805 4.70205 0.297246 5.10293 0.277588C5.1501 0.769047 4.96616 1.25068 4.6879 1.60944ZM5.09817 2.28849C4.69928 2.26456 4.33532 2.41349 4.04134 2.53378C3.85216 2.61119 3.69195 2.67674 3.57007 2.67674C3.4333 2.67674 3.26648 2.60768 3.07918 2.53015C2.83376 2.42855 2.55317 2.3124 2.25893 2.31797C1.5845 2.3278 0.957225 2.72588 0.612933 3.35986C-0.0945173 4.62783 0.428996 6.5052 1.11286 7.53726C1.44772 8.04838 1.84861 8.60864 2.37684 8.58898C2.60923 8.57984 2.7764 8.50593 2.9494 8.42943C3.14857 8.34136 3.35548 8.24987 3.67855 8.24987C3.99042 8.24987 4.18828 8.33898 4.37821 8.42451C4.5588 8.50584 4.73223 8.58394 4.98969 8.57915C5.53678 8.56932 5.88108 8.06803 6.21594 7.55692C6.57731 7.00835 6.73611 6.47297 6.76021 6.39173L6.76303 6.38233C6.76245 6.38173 6.75799 6.3796 6.75011 6.37584C6.62931 6.31821 5.706 5.87775 5.69714 4.69663C5.68825 3.70525 6.42949 3.20295 6.54617 3.12388C6.55328 3.11907 6.55806 3.11583 6.56023 3.11414C6.0886 2.38678 5.35285 2.30814 5.09817 2.28849ZM8.88542 8.5243V0.862467H11.6445C13.0688 0.862467 14.064 1.8847 14.064 3.37873C14.064 4.87277 13.0499 5.90483 11.6067 5.90483H10.0268V8.5243H8.88542ZM10.0267 1.86567H11.3425C12.333 1.86567 12.8989 2.4161 12.8989 3.38428C12.8989 4.35245 12.333 4.9078 11.3378 4.9078H10.0267V1.86567ZM17.8324 7.6052C17.5305 8.20477 16.8655 8.5832 16.1486 8.5832C15.0875 8.5832 14.347 7.92464 14.347 6.9319C14.347 5.94898 15.0639 5.38381 16.3892 5.30026L17.8135 5.2118V4.78914C17.8135 4.16499 17.422 3.82588 16.724 3.82588C16.1486 3.82588 15.7289 4.1355 15.644 4.6073H14.6158C14.6488 3.61456 15.5449 2.89211 16.757 2.89211C18.0635 2.89211 18.9124 3.60473 18.9124 4.71051V8.52422H17.8559V7.6052H17.8324ZM16.4551 7.67324C15.8467 7.67324 15.46 7.36854 15.46 6.90165C15.46 6.42002 15.8326 6.13989 16.5447 6.09566L17.8134 6.01211V6.4446C17.8134 7.16213 17.2286 7.67324 16.4551 7.67324ZM22.4166 8.82389C21.9591 10.1656 21.4356 10.6079 20.3225 10.6079C20.2376 10.6079 19.9547 10.5981 19.8886 10.5784V9.65937C19.9594 9.6692 20.1339 9.67902 20.2235 9.67902C20.7281 9.67902 21.0111 9.45787 21.1856 8.88286L21.2894 8.54376L19.3557 2.96571H20.5489L21.8931 7.49204H21.9167L23.2608 2.96571H24.421L22.4166 8.82389Z" fill="white"/>
</svg>
