<svg width="31" height="15" viewBox="0 0 31 15" fill="none" xmlns="http://www.w3.org/2000/svg">
<path d="M11.9012 14.3449L30.7413 8.64331V11.3702C30.7413 13.0131 29.4095 14.3449 27.7666 14.3449H11.9012Z" fill="#FD6020"/>
<path fill-rule="evenodd" clip-rule="evenodd" d="M26.8792 0.371592C27.9157 0.371592 28.4858 0.851065 28.4858 1.75674C28.5376 2.44931 28.0712 3.03533 27.4493 3.14188L28.8486 5.11304H27.7603L26.5683 3.19515H26.4646V5.11304H25.5836V0.371592H26.8792ZM26.4646 2.55563H26.7238C27.2938 2.55563 27.553 2.28926 27.553 1.80979C27.553 1.38359 27.2938 1.11722 26.7238 1.11722H26.4646V2.55563ZM22.526 5.11356H25.0136V4.31444H23.4071V3.03585H24.9618V2.23673H23.4071V1.17123H25.0136V0.37211H22.526V5.11356ZM19.9348 3.56859L18.7428 0.37211H17.81L19.7275 5.22011H20.1939L22.1114 0.37211H21.1786L19.9348 3.56859ZM9.41432 2.76876C9.41432 4.10062 10.4508 5.21939 11.7464 5.21939C12.161 5.21939 12.5238 5.11284 12.8866 4.95302V3.88752C12.6275 4.20717 12.2647 4.42027 11.8501 4.42027C11.0209 4.42027 10.3472 3.78098 10.3472 2.92858V2.82203C10.2953 1.96963 10.9691 1.22379 11.7983 1.17051C12.2129 1.17051 12.6275 1.38361 12.8866 1.70326V0.637767C12.5756 0.424668 12.161 0.371393 11.7983 0.371393C10.4508 0.264843 9.41432 1.38361 9.41432 2.76876ZM7.80774 2.18297C7.28949 1.96988 7.13401 1.86333 7.13401 1.59695C7.18584 1.2773 7.44496 1.01093 7.75591 1.06421C8.01504 1.06421 8.27416 1.22403 8.48146 1.43713L8.94788 0.797831C8.58511 0.478183 8.11869 0.265084 7.65226 0.265084C6.92671 0.211809 6.30482 0.797831 6.25299 1.54368V1.59695C6.25299 2.23625 6.51212 2.60917 7.34131 2.87555C7.54861 2.92882 7.75591 3.03537 7.96321 3.14192C8.11869 3.24847 8.22233 3.40829 8.22233 3.62139C8.22233 3.99432 7.91139 4.31396 7.60044 4.31396H7.54861C7.13401 4.31396 6.77124 4.04759 6.61577 3.67467L6.04569 4.26069C6.35664 4.84671 6.97854 5.16636 7.60044 5.16636C8.42963 5.21963 9.10336 4.58034 9.15518 3.72794V3.56812C9.10336 2.92882 8.84423 2.60917 7.80774 2.18297ZM4.80192 5.11356H5.68294V0.37211H4.80192V5.11356ZM0.707764 0.371637H2.00338H2.26251C3.5063 0.424912 4.49097 1.49041 4.43915 2.769C4.43915 3.46157 4.1282 4.10087 3.60995 4.58034C3.14353 4.95326 2.57346 5.16636 2.00338 5.11309H0.707764V0.371637ZM1.8479 4.31329C2.2625 4.36656 2.72892 4.20674 3.03987 3.94036C3.35082 3.62071 3.50629 3.19452 3.50629 2.71504C3.50629 2.28885 3.35082 1.86265 3.03987 1.543C2.72892 1.27662 2.2625 1.1168 1.8479 1.17008H1.58877V4.31329H1.8479Z" fill="white"/>
<path fill-rule="evenodd" clip-rule="evenodd" d="M15.5296 0.26123C14.234 0.26123 13.1456 1.32673 13.1456 2.71187C13.1456 4.04374 14.1821 5.16251 15.5296 5.21578C16.877 5.26906 17.9135 4.15029 17.9653 2.76514C17.9135 1.38 16.877 0.26123 15.5296 0.26123V0.26123Z" fill="#FD6020"/>
</svg>
