<svg width="49" height="20" viewBox="0 0 49 20" fill="none" xmlns="http://www.w3.org/2000/svg">
<g clip-path="url(#clip0_644_1799)">
<rect width="8.24116" height="8.24116" transform="translate(3.74561)" fill="#1A1A1A"/>
<path d="M10.27 3.7776H5.46264C5.08335 3.7776 4.77588 4.08507 4.77588 4.46436V6.86803C4.77588 7.24732 5.08335 7.55479 5.46264 7.55479H10.27C10.6493 7.55479 10.9567 7.24732 10.9567 6.86803V4.46436C10.9567 4.08507 10.6493 3.7776 10.27 3.7776Z" stroke="white" stroke-width="0.686763" stroke-linecap="round" stroke-linejoin="round"/>
<path d="M6.14941 3.7776V2.40407C6.14941 1.94872 6.3303 1.51202 6.65228 1.19003C6.97427 0.868052 7.41097 0.687164 7.86632 0.687164C8.32167 0.687164 8.75838 0.868052 9.08036 1.19003C9.40234 1.51202 9.58323 1.94872 9.58323 2.40407V3.7776" stroke="white" stroke-width="0.686763" stroke-linecap="round" stroke-linejoin="round"/>
</g>
<path d="M15.9412 7.05769C15.5621 7.05769 15.2215 6.99176 14.9193 6.8599C14.6226 6.72255 14.3891 6.53575 14.2188 6.2995C14.0485 6.05776 13.9606 5.78031 13.9551 5.46714H14.7545C14.782 5.73636 14.8918 5.96436 15.0841 6.15116C15.2819 6.33247 15.5676 6.42312 15.9412 6.42312C16.2983 6.42312 16.5785 6.33521 16.7818 6.1594C16.9906 5.9781 17.095 5.74734 17.095 5.46714C17.095 5.24738 17.0345 5.06882 16.9137 4.93147C16.7928 4.79412 16.6417 4.68973 16.4604 4.61831C16.2791 4.54688 16.0346 4.46996 15.7269 4.38755C15.3479 4.28866 15.0429 4.18977 14.8122 4.09087C14.5869 3.99198 14.3919 3.83814 14.2271 3.62937C14.0677 3.4151 13.9881 3.1294 13.9881 2.77229C13.9881 2.45912 14.0677 2.18167 14.2271 1.93993C14.3864 1.69819 14.6089 1.51139 14.8946 1.37953C15.1858 1.24767 15.5182 1.18174 15.8918 1.18174C16.4302 1.18174 16.8697 1.31635 17.2104 1.58556C17.5565 1.85477 17.7515 2.21189 17.7955 2.65691H16.9714C16.9439 2.43715 16.8285 2.24485 16.6252 2.08003C16.422 1.90971 16.1527 1.82455 15.8176 1.82455C15.5044 1.82455 15.249 1.90696 15.0512 2.07179C14.8534 2.23112 14.7545 2.45638 14.7545 2.74756C14.7545 2.95634 14.8122 3.12666 14.9276 3.25851C15.0484 3.39037 15.194 3.49201 15.3643 3.56344C15.5401 3.62937 15.7846 3.70628 16.0978 3.79419C16.4769 3.89858 16.7818 4.00297 17.0126 4.10735C17.2433 4.20625 17.4411 4.36283 17.6059 4.5771C17.7708 4.78588 17.8532 5.07157 17.8532 5.43418C17.8532 5.71438 17.779 5.9781 17.6307 6.22533C17.4823 6.47257 17.2625 6.6731 16.9714 6.82694C16.6802 6.98077 16.3368 7.05769 15.9412 7.05769ZM23.0774 4.56886C23.0774 4.71171 23.0691 4.86279 23.0526 5.02212H19.443C19.4705 5.46714 19.6216 5.81602 19.8963 6.06875C20.1765 6.31598 20.5144 6.4396 20.9099 6.4396C21.2341 6.4396 21.5033 6.36543 21.7176 6.21709C21.9373 6.06326 22.0912 5.85997 22.1791 5.60724H22.9867C22.8658 6.04128 22.6241 6.39565 22.2615 6.67035C21.8989 6.93956 21.4483 7.07417 20.9099 7.07417C20.4814 7.07417 20.0968 6.97802 19.7562 6.78573C19.421 6.59344 19.1573 6.32148 18.965 5.96986C18.7727 5.61274 18.6766 5.20068 18.6766 4.73368C18.6766 4.26668 18.77 3.85737 18.9568 3.50575C19.1436 3.15413 19.4045 2.88492 19.7397 2.69812C20.0803 2.50582 20.4704 2.40967 20.9099 2.40967C21.3385 2.40967 21.7176 2.50307 22.0472 2.68987C22.3769 2.87667 22.6296 3.1349 22.8054 3.46454C22.9867 3.7887 23.0774 4.1568 23.0774 4.56886ZM22.3027 4.41228C22.3027 4.12658 22.2395 3.8821 22.1131 3.67881C21.9868 3.47004 21.8137 3.31346 21.5939 3.20907C21.3797 3.09919 21.1407 3.04424 20.877 3.04424C20.4979 3.04424 20.1737 3.16511 19.9045 3.40686C19.6408 3.6486 19.4897 3.98374 19.4512 4.41228H22.3027ZM23.7871 4.73368C23.7871 4.26668 23.8805 3.86012 24.0673 3.51399C24.2541 3.16237 24.5123 2.89041 24.8419 2.69812C25.1771 2.50582 25.5589 2.40967 25.9874 2.40967C26.5423 2.40967 26.9984 2.54428 27.3555 2.81349C27.7181 3.0827 27.9571 3.4563 28.0725 3.93429H27.2648C27.1879 3.65958 27.0368 3.44257 26.8116 3.28324C26.5918 3.12391 26.3171 3.04424 25.9874 3.04424C25.5589 3.04424 25.2128 3.19259 24.9491 3.48927C24.6853 3.78045 24.5535 4.19526 24.5535 4.73368C24.5535 5.2776 24.6853 5.6979 24.9491 5.99458C25.2128 6.29126 25.5589 6.4396 25.9874 6.4396C26.3171 6.4396 26.5918 6.36268 26.8116 6.20885C27.0313 6.05501 27.1824 5.83525 27.2648 5.54956H28.0725C27.9516 6.01106 27.7098 6.38191 27.3472 6.66211C26.9846 6.93682 26.5314 7.07417 25.9874 7.07417C25.5589 7.07417 25.1771 6.97802 24.8419 6.78573C24.5123 6.59344 24.2541 6.32148 24.0673 5.96986C23.8805 5.61823 23.7871 5.20617 23.7871 4.73368ZM33.0783 2.48385V7H32.3284V6.33247C32.1855 6.56322 31.985 6.74452 31.7268 6.87638C31.474 7.00275 31.1938 7.06593 30.8862 7.06593C30.5345 7.06593 30.2186 6.99451 29.9384 6.85166C29.6582 6.70332 29.4357 6.48355 29.2709 6.19237C29.1116 5.90118 29.0319 5.54681 29.0319 5.12926V2.48385H29.7736V5.03036C29.7736 5.47539 29.8862 5.81877 30.1115 6.06051C30.3368 6.29675 30.6444 6.41488 31.0345 6.41488C31.4356 6.41488 31.7515 6.29126 31.9822 6.04403C32.213 5.79679 32.3284 5.43693 32.3284 4.96443V2.48385H33.0783ZM35.0945 3.21731C35.2264 2.95909 35.4132 2.75855 35.6549 2.6157C35.9021 2.47286 36.2016 2.40143 36.5532 2.40143V3.1761H36.3554C35.5148 3.1761 35.0945 3.63211 35.0945 4.54413V7H34.3446V2.48385H35.0945V3.21731ZM41.5395 4.56886C41.5395 4.71171 41.5312 4.86279 41.5148 5.02212H37.9051C37.9326 5.46714 38.0837 5.81602 38.3584 6.06875C38.6386 6.31598 38.9765 6.4396 39.3721 6.4396C39.6962 6.4396 39.9654 6.36543 40.1797 6.21709C40.3994 6.06326 40.5533 5.85997 40.6412 5.60724H41.4488C41.328 6.04128 41.0862 6.39565 40.7236 6.67035C40.361 6.93956 39.9105 7.07417 39.3721 7.07417C38.9435 7.07417 38.5589 6.97802 38.2183 6.78573C37.8831 6.59344 37.6194 6.32148 37.4271 5.96986C37.2348 5.61274 37.1387 5.20068 37.1387 4.73368C37.1387 4.26668 37.2321 3.85737 37.4189 3.50575C37.6057 3.15413 37.8667 2.88492 38.2018 2.69812C38.5424 2.50582 38.9325 2.40967 39.3721 2.40967C39.8006 2.40967 40.1797 2.50307 40.5093 2.68987C40.839 2.87667 41.0917 3.1349 41.2675 3.46454C41.4488 3.7887 41.5395 4.1568 41.5395 4.56886ZM40.7648 4.41228C40.7648 4.12658 40.7016 3.8821 40.5753 3.67881C40.4489 3.47004 40.2758 3.31346 40.0561 3.20907C39.8418 3.09919 39.6028 3.04424 39.3391 3.04424C38.96 3.04424 38.6358 3.16511 38.3666 3.40686C38.1029 3.6486 37.9518 3.98374 37.9134 4.41228H40.7648Z" fill="white"/>
<path d="M8.8429 12.6571C8.8429 12.9928 8.76199 13.3074 8.60016 13.6011C8.44433 13.8948 8.1956 14.1315 7.85396 14.3114C7.51832 14.4912 7.09278 14.5811 6.57733 14.5811H5.52546V16.9905H4.26681V10.7152H6.57733C7.06281 10.7152 7.47637 10.7991 7.818 10.9669C8.15963 11.1348 8.41436 11.3655 8.58218 11.6592C8.75599 11.9529 8.8429 12.2855 8.8429 12.6571ZM6.52339 13.5652C6.87102 13.5652 7.12874 13.4872 7.29656 13.3314C7.46438 13.1696 7.54829 12.9448 7.54829 12.6571C7.54829 12.0458 7.20666 11.7401 6.52339 11.7401H5.52546V13.5652H6.52339ZM9.41288 14.4822C9.41288 13.9787 9.51177 13.5322 9.70956 13.1426C9.91334 12.753 10.186 12.4533 10.5277 12.2436C10.8753 12.0338 11.2619 11.9289 11.6874 11.9289C12.059 11.9289 12.3827 12.0038 12.6584 12.1537C12.9401 12.3035 13.1648 12.4923 13.3327 12.7201V12.0098H14.6003V16.9905H13.3327V16.2623C13.1708 16.496 12.9461 16.6908 12.6584 16.8466C12.3767 16.9965 12.05 17.0714 11.6784 17.0714C11.2589 17.0714 10.8753 16.9635 10.5277 16.7477C10.186 16.532 9.91334 16.2293 9.70956 15.8397C9.51177 15.4441 9.41288 14.9916 9.41288 14.4822ZM13.3327 14.5002C13.3327 14.1945 13.2727 13.9338 13.1529 13.718C13.033 13.4962 12.8712 13.3284 12.6674 13.2145C12.4636 13.0947 12.2448 13.0347 12.0111 13.0347C11.7773 13.0347 11.5616 13.0917 11.3638 13.2055C11.166 13.3194 11.0042 13.4872 10.8783 13.709C10.7584 13.9248 10.6985 14.1825 10.6985 14.4822C10.6985 14.7818 10.7584 15.0456 10.8783 15.2733C11.0042 15.4951 11.166 15.6659 11.3638 15.7858C11.5676 15.9056 11.7833 15.9656 12.0111 15.9656C12.2448 15.9656 12.4636 15.9086 12.6674 15.7948C12.8712 15.6749 13.033 15.5071 13.1529 15.2913C13.2727 15.0695 13.3327 14.8058 13.3327 14.5002ZM20.5945 12.0098L17.5108 19.346H16.1712L17.2501 16.8646L15.2542 12.0098H16.6657L17.9513 15.4891L19.2549 12.0098H20.5945ZM27.4583 11.9379C28.0697 11.9379 28.5612 12.1267 28.9328 12.5043C29.3104 12.8759 29.4992 13.3973 29.4992 14.0686V16.9905H28.2405V14.2394C28.2405 13.8498 28.1416 13.5532 27.9438 13.3494C27.746 13.1396 27.4763 13.0347 27.1347 13.0347C26.7931 13.0347 26.5203 13.1396 26.3166 13.3494C26.1188 13.5532 26.0199 13.8498 26.0199 14.2394V16.9905H24.7612V14.2394C24.7612 13.8498 24.6623 13.5532 24.4646 13.3494C24.2668 13.1396 23.9971 13.0347 23.6554 13.0347C23.3078 13.0347 23.0321 13.1396 22.8283 13.3494C22.6305 13.5532 22.5316 13.8498 22.5316 14.2394V16.9905H21.273V12.0098H22.5316V12.6122C22.6935 12.4024 22.9002 12.2376 23.152 12.1177C23.4097 11.9978 23.6914 11.9379 23.9971 11.9379C24.3866 11.9379 24.7343 12.0218 25.0399 12.1896C25.3456 12.3515 25.5824 12.5852 25.7502 12.8909C25.912 12.6032 26.1457 12.3724 26.4514 12.1986C26.7631 12.0248 27.0987 11.9379 27.4583 11.9379ZM35.3236 14.3923C35.3236 14.5721 35.3116 14.7339 35.2876 14.8777H31.6465C31.6765 15.2374 31.8023 15.5191 32.0241 15.7228C32.2459 15.9266 32.5186 16.0285 32.8422 16.0285C33.3097 16.0285 33.6424 15.8277 33.8402 15.4262H35.1977C35.0539 15.9056 34.7782 16.3012 34.3706 16.6129C33.963 16.9186 33.4626 17.0714 32.8692 17.0714C32.3897 17.0714 31.9582 16.9665 31.5746 16.7567C31.197 16.541 30.9003 16.2383 30.6845 15.8487C30.4748 15.4591 30.3699 15.0096 30.3699 14.5002C30.3699 13.9847 30.4748 13.5322 30.6845 13.1426C30.8943 12.753 31.188 12.4533 31.5656 12.2436C31.9432 12.0338 32.3777 11.9289 32.8692 11.9289C33.3427 11.9289 33.7652 12.0308 34.1368 12.2346C34.5144 12.4384 34.8051 12.7291 35.0089 13.1066C35.2187 13.4782 35.3236 13.9068 35.3236 14.3923ZM34.02 14.0327C34.014 13.709 33.8971 13.4513 33.6693 13.2595C33.4416 13.0617 33.1629 12.9628 32.8332 12.9628C32.5216 12.9628 32.2579 13.0587 32.0421 13.2505C31.8323 13.4363 31.7035 13.697 31.6555 14.0327H34.02ZM39.0023 11.9379C39.5957 11.9379 40.0752 12.1267 40.4408 12.5043C40.8064 12.8759 40.9892 13.3973 40.9892 14.0686V16.9905H39.7305V14.2394C39.7305 13.8439 39.6316 13.5412 39.4338 13.3314C39.2361 13.1156 38.9663 13.0078 38.6247 13.0078C38.2771 13.0078 38.0014 13.1156 37.7976 13.3314C37.5998 13.5412 37.5009 13.8439 37.5009 14.2394V16.9905H36.2423V12.0098H37.5009V12.6302C37.6687 12.4144 37.8815 12.2466 38.1392 12.1267C38.4029 12.0008 38.6906 11.9379 39.0023 11.9379ZM43.6515 13.0437V15.4531C43.6515 15.6209 43.6905 15.7438 43.7684 15.8217C43.8523 15.8937 43.9901 15.9296 44.1819 15.9296H44.7663V16.9905H43.9752C42.9143 16.9905 42.3839 16.475 42.3839 15.4441V13.0437H41.7905V12.0098H42.3839V10.7781H43.6515V12.0098H44.7663V13.0437H43.6515Z" fill="white"/>
<defs>
<clipPath id="clip0_644_1799">
<rect width="8.24116" height="8.24116" fill="white" transform="translate(3.74561)"/>
</clipPath>
</defs>
</svg>
