<svg width="25" height="9" viewBox="0 0 25 9" fill="none" xmlns="http://www.w3.org/2000/svg">
<path fill-rule="evenodd" clip-rule="evenodd" d="M6.68545 8.06199H4.64304L3.11149 2.04717C3.03879 1.77049 2.88444 1.52589 2.6574 1.4106C2.09078 1.12089 1.46641 0.890323 0.785278 0.774036V0.542466H4.07543C4.52952 0.542466 4.87009 0.890323 4.92685 1.29432L5.7215 5.63301L7.76291 0.542466H9.74855L6.68545 8.06199ZM10.8838 8.06199H8.95488L10.5432 0.542466H12.4721L10.8838 8.06199ZM14.9676 2.62472C15.0244 2.21973 15.3649 1.98815 15.7623 1.98815C16.3866 1.93001 17.0668 2.0463 17.6344 2.33501L17.9749 0.716021C17.4073 0.484451 16.783 0.368164 16.2163 0.368164C14.3442 0.368164 12.982 1.40973 12.982 2.85529C12.982 3.955 13.9469 4.53242 14.628 4.88028C15.3649 5.22713 15.6487 5.4587 15.592 5.80556C15.592 6.32584 15.0244 6.55741 14.4577 6.55741C13.7766 6.55741 13.0955 6.38398 12.4721 6.09427L12.1315 7.71426C12.8127 8.00297 13.5496 8.11926 14.2307 8.11926C16.3299 8.1764 17.6344 7.13584 17.6344 5.57399C17.6344 3.60714 14.9676 3.49186 14.9676 2.62472ZM24.385 8.06199L22.8534 0.542466H21.2083C20.8678 0.542466 20.5272 0.774036 20.4137 1.12089L17.5776 8.06199H19.5633L19.9596 6.96328H22.3993L22.6264 8.06199H24.385ZM21.4921 2.5663L22.0587 5.40028H20.4704L21.4921 2.5663Z" fill="white"/>
</svg>
